<svg xmlns="http://www.w3.org/2000/svg" xmlns:xlink="http://www.w3.org/1999/xlink"><symbol id="icon-ok" viewBox="0 0 25 25"><g fill="none">
<path fill-rule="evenodd" clip-rule="evenodd" d="M0 12.5C0 5.59692 5.59692 0 12.5 0C19.4031 0 25 5.59692 25 12.5C25 19.4031 19.4031 25 12.5 25C5.59692 25 0 19.4031 0 12.5ZM14.3095 8.57063C14.3095 7.64311 13.5788 6.88881 12.6803 6.88881C11.7818 6.88881 11.0511 7.64311 11.0511 8.57063C11.0511 9.49535 11.7818 10.2496 12.6803 10.2496C13.5788 10.2496 14.3095 9.49535 14.3095 8.57063ZM16.6153 8.57063C16.6153 10.8084 14.8508 12.6299 12.6803 12.6299C10.5099 12.6299 8.74808 10.8084 8.74808 8.57063C8.74808 6.33007 10.5099 4.50857 12.6803 4.50857C14.8508 4.50857 16.6153 6.33007 16.6153 8.57063ZM16.5558 14.9654C15.844 15.4264 15.0727 15.7533 14.2717 15.9432L16.4719 18.2117C16.9211 18.6755 16.9211 19.4298 16.4719 19.8936C16.0199 20.3601 15.2919 20.3601 14.8427 19.8936L12.6803 17.6642L10.5207 19.8936C10.2934 20.1254 9.99839 20.2428 9.7034 20.2428C9.40842 20.2428 9.11613 20.1254 8.88881 19.8936C8.43956 19.4298 8.43956 18.6755 8.88881 18.2117L11.089 15.9432C10.288 15.7533 9.51667 15.4264 8.80491 14.9654C8.26635 14.6162 8.10398 13.8815 8.44226 13.3255C8.78055 12.7668 9.49231 12.5992 10.0309 12.9512C11.6438 13.996 13.7169 13.996 15.3271 12.9512C15.8684 12.5992 16.5774 12.7668 16.9184 13.3255C17.2567 13.8815 17.0943 14.6162 16.5558 14.9654Z" fill="currentColor"/>
</g></symbol><symbol id="icon-play" viewBox="0 0 13 15"><g fill="none">
<path d="M13 7.5L0.249999 14.8612L0.25 0.138783L13 7.5Z" fill="currentColor"/>
</g></symbol><symbol id="icon-reddit" viewBox="0 0 25 25"><g fill="none">
<path fill-rule="evenodd" clip-rule="evenodd" d="M0 12.5C0 5.59692 5.59692 0 12.5 0C19.4031 0 25 5.59692 25 12.5C25 19.4031 19.4031 25 12.5 25C5.59692 25 0 19.4031 0 12.5ZM12.7195 6.10741C12.9876 5.7816 13.4055 5.55566 13.8509 5.55566C14.5707 5.55566 15.054 6.04796 15.3031 6.37378C15.342 6.42431 15.377 6.47136 15.4086 6.51384C15.4781 6.6073 15.5312 6.67864 15.5733 6.71624C15.6345 6.77094 15.6514 6.77332 15.7421 6.77332V7.99098C15.4171 7.99098 15.1174 7.84115 14.9147 7.66754C14.7352 7.51375 14.6154 7.35624 14.514 7.22309C14.501 7.20593 14.4882 7.18916 14.4757 7.17286C14.4534 7.1439 14.433 7.11668 14.4138 7.09115C14.2455 6.86722 14.1749 6.77332 13.8509 6.77332C13.6841 6.77332 13.6124 6.82326 13.5132 6.94455C13.414 7.06584 13.3211 7.28702 13.243 7.59143C13.1184 8.07659 13.0741 8.72109 13.0572 9.34181C14.3026 9.42743 15.4297 9.79843 16.3669 10.3692C16.749 10.0481 17.2091 9.86978 17.6503 9.87454C18.1527 9.87929 18.6297 10.0957 18.9843 10.5404C19.6619 11.3895 19.5838 12.7784 18.7986 13.6036C18.8471 13.8581 18.883 14.1197 18.883 14.3837C18.883 17.1781 16.025 19.4446 12.5 19.4446C8.97498 19.4446 6.11698 17.1805 6.11698 14.3837C6.11698 14.1197 6.15286 13.8581 6.20142 13.6036C5.4162 12.7784 5.3381 11.3895 6.01566 10.5404C6.37028 10.0957 6.84731 9.87929 7.34968 9.87454C7.79083 9.86978 8.25098 10.0481 8.63303 10.3692C9.57444 9.79606 10.7079 9.42505 11.9596 9.34181C11.9723 8.66877 12.0251 7.92201 12.196 7.24897C12.3037 6.8304 12.4514 6.43323 12.7195 6.10741ZM15.8435 7.38215C15.8435 6.43561 16.5231 5.66982 17.3632 5.66982C18.2033 5.66982 18.883 6.43561 18.883 7.38215C18.883 8.32869 18.2033 9.09448 17.3632 9.09448C16.5231 9.09448 15.8435 8.32869 15.8435 7.38215ZM18.3426 7.38215C18.3426 6.77332 17.9036 6.27865 17.3632 6.27865C16.8229 6.27865 16.3838 6.77332 16.3838 7.38215C16.3838 7.99098 16.8229 8.48565 17.3632 8.48565C17.9036 8.48565 18.3426 7.99098 18.3426 7.38215ZM18.0218 14.3837C18.0218 12.1695 15.491 10.2931 12.5 10.2931C9.50901 10.2931 6.97818 12.1695 6.97818 14.3837C6.97818 16.6002 9.50901 18.4742 12.5 18.4742C15.491 18.4742 18.0218 16.6002 18.0218 14.3837ZM7.82249 10.959C7.67263 10.8853 7.51643 10.8472 7.36656 10.8449C7.09005 10.8425 6.83887 10.959 6.65734 11.1873C6.40827 11.4989 6.35339 12.0863 6.55602 12.5572C6.84943 11.9555 7.28002 11.4228 7.82249 10.959ZM18.3426 11.1873C18.1611 10.959 17.9099 10.8425 17.6334 10.8449C17.4835 10.8472 17.3273 10.8853 17.1775 10.959C17.72 11.4228 18.1506 11.9555 18.4439 12.5572C18.6466 12.0863 18.5917 11.4989 18.3426 11.1873ZM9.35915 13.4704C9.35915 12.8616 9.79819 12.3669 10.3385 12.3669C10.8789 12.3669 11.3179 12.8616 11.3179 13.4704C11.3179 14.0793 10.8789 14.5739 10.3385 14.5739C9.79819 14.5739 9.35915 14.0793 9.35915 13.4704ZM13.682 13.4704C13.682 12.8616 14.1211 12.3669 14.6614 12.3669C15.2018 12.3669 15.6408 12.8616 15.6408 13.4704C15.6408 14.0793 15.2018 14.5739 14.6614 14.5739C14.1211 14.5739 13.682 14.0793 13.682 13.4704ZM12.5 17.6942C11.223 17.6942 10.1591 16.9165 9.81507 16.115C10.4399 16.5693 11.4087 16.8761 12.5 16.8761C13.5913 16.8761 14.577 16.5693 15.2018 16.115C14.8577 16.9165 13.777 17.6942 12.5 17.6942Z" fill="currentColor"/>
</g></symbol><symbol id="icon-rouble" viewBox="0 0 30 42"><g fill="none">
<path fill-rule="evenodd" clip-rule="evenodd" d="M0 17H6V23H0V17Z" fill="#102654"/>
<path fill-rule="evenodd" clip-rule="evenodd" d="M3.65854 28.3214V18H9.65854V28.3214H21V34.3214H9.65854V42H3.65854V34.3214H0V28.3214H3.65854Z" fill="#102654"/>
<path fill-rule="evenodd" clip-rule="evenodd" d="M18.5 6H10V17H18.5C21.5376 17 24 14.5376 24 11.5C24 8.46243 21.5376 6 18.5 6ZM4 0V23H18.5C24.8513 23 30 17.8513 30 11.5C30 5.14873 24.8513 0 18.5 0H4Z" fill="#102654"/>
</g></symbol><symbol id="icon-vk" viewBox="0 0 25 25"><g fill="none">
<path fill-rule="evenodd" clip-rule="evenodd" d="M0 12.5C0 5.59692 5.59692 0 12.5 0C19.4031 0 25 5.59692 25 12.5C25 19.4031 19.4031 25 12.5 25C5.59692 25 0 19.4031 0 12.5ZM14.6407 15.7196C14.3024 15.3275 13.9899 14.9654 13.7227 15.0518C13.2754 15.1953 13.2898 16.1719 13.2898 16.1719C13.2898 16.1719 13.2944 16.3807 13.1907 16.4919C13.0796 16.6113 12.8624 16.6363 12.8624 16.6363H12.1423C12.1423 16.6363 10.5531 16.734 9.15473 15.2606C7.62944 13.6557 6.28242 10.4694 6.28242 10.4694C6.28242 10.4694 6.20509 10.261 6.28937 10.1601C6.38429 10.0462 6.64267 10.0388 6.64267 10.0388L8.36245 10.0277C8.36245 10.0277 8.52452 10.055 8.64028 10.1406C8.73752 10.2129 8.79123 10.3448 8.79123 10.3448C8.79123 10.3448 9.0686 11.0552 9.4358 11.6979C10.1549 12.9546 10.4892 13.2287 10.7337 13.0944C11.0898 12.8986 10.9838 11.3191 10.9838 11.3191C10.9838 11.3191 10.9893 10.7463 10.8037 10.4907C10.6592 10.2934 10.3892 10.2356 10.2688 10.2194C10.173 10.2064 10.3309 9.97996 10.5369 9.8767C10.8472 9.72436 11.3945 9.71464 12.0391 9.72436C12.5433 9.72899 12.6878 9.76048 12.8855 9.80863C13.3415 9.91995 13.3274 10.2776 13.2969 11.0496C13.2878 11.2795 13.2773 11.5461 13.2773 11.8539C13.2773 11.9239 13.2752 11.9985 13.2731 12.0753C13.2623 12.4693 13.2498 12.9197 13.506 13.0875C13.6394 13.1741 13.9612 13.1005 14.7674 11.7164C15.1233 11.1061 15.3962 10.3955 15.4324 10.3012C15.435 10.2944 15.4364 10.2908 15.4365 10.2907C15.5046 10.1073 15.6541 10.0527 15.8305 10.0522L17.6425 10.0397C17.6425 10.0397 18.1856 9.97487 18.2745 10.2245C18.3671 10.4838 18.0712 11.0927 17.3318 12.0896C16.6293 13.0363 16.2876 13.3837 16.3199 13.6918C16.3435 13.916 16.565 14.1194 16.9896 14.5179C17.8839 15.3568 18.1208 15.7957 18.1766 15.8991C18.1809 15.9072 18.1842 15.9132 18.1865 15.9172C18.5838 16.5849 17.7434 16.6368 17.7434 16.6368L16.1352 16.6599C16.1352 16.6599 15.7884 16.728 15.3355 16.4127C15.0964 16.2477 14.863 15.9772 14.6407 15.7196Z" fill="currentColor"/>
</g></symbol><symbol id="logo" viewBox="0 0 119 23"><g fill="none">
<path d="M5.768 22.252C4.592 22.252 3.572 22.072 2.708 21.712C1.844 21.352 1.184 20.716 0.728 19.804C0.296 18.892 0.08 17.608 0.08 15.952V14.728C0.656 14.728 1.244 14.728 1.844 14.728C2.444 14.728 3.032 14.728 3.608 14.728V16.24C3.608 17.248 3.704 18.028 3.896 18.58C4.088 19.132 4.352 19.516 4.688 19.732C5.024 19.924 5.408 20.02 5.84 20.02C6.536 20.02 7.088 19.792 7.496 19.336C7.928 18.856 8.144 17.968 8.144 16.672C8.144 15.712 8 14.992 7.712 14.512C7.424 14.032 6.968 13.648 6.344 13.36C5.744 13.048 4.964 12.7 4.004 12.316C3.212 11.956 2.528 11.536 1.952 11.056C1.376 10.576 0.944 9.964 0.656 9.22C0.368 8.476 0.224 7.552 0.224 6.448C0.224 5.104 0.392 4.012 0.728 3.172C1.088 2.308 1.688 1.684 2.528 1.3C3.368 0.891999 4.496 0.688 5.912 0.688C7.736 0.688 9.128 1.108 10.088 1.948C11.048 2.764 11.528 3.964 11.528 5.548V8.032C10.976 8.032 10.412 8.032 9.836 8.032C9.284 8.032 8.72 8.032 8.144 8.032V6.556C8.144 5.452 7.964 4.66 7.604 4.18C7.268 3.676 6.716 3.424 5.948 3.424C5.156 3.424 4.58 3.664 4.22 4.144C3.884 4.6 3.716 5.332 3.716 6.34C3.716 7.204 3.884 7.876 4.22 8.356C4.556 8.812 4.988 9.172 5.516 9.436C6.068 9.7 6.632 9.94 7.208 10.156C8.288 10.564 9.164 10.984 9.836 11.416C10.508 11.848 11 12.424 11.312 13.144C11.624 13.864 11.78 14.884 11.78 16.204C11.78 17.716 11.528 18.916 11.024 19.804C10.544 20.668 9.848 21.292 8.936 21.676C8.048 22.06 6.992 22.252 5.768 22.252ZM20.9164 22.432C20.1004 22.432 19.3444 22.372 18.6484 22.252C17.9524 22.132 17.3524 21.892 16.8484 21.532C16.3444 21.172 15.9484 20.632 15.6604 19.912C15.3724 19.192 15.2284 18.22 15.2284 16.996V0.723999H18.6844V17.896C18.6844 18.544 18.7804 19.048 18.9724 19.408C19.1884 19.744 19.4644 19.972 19.8004 20.092C20.1364 20.212 20.5084 20.272 20.9164 20.272C21.3244 20.272 21.6964 20.212 22.0324 20.092C22.3684 19.972 22.6324 19.744 22.8244 19.408C23.0404 19.048 23.1484 18.544 23.1484 17.896V0.723999H26.5684V16.96C26.5684 18.184 26.4244 19.168 26.1364 19.912C25.8724 20.632 25.4884 21.172 24.9844 21.532C24.4804 21.892 23.8804 22.132 23.1844 22.252C22.4884 22.372 21.7324 22.432 20.9164 22.432ZM30.822 22V0.723999H38.022C39.366 0.723999 40.398 1.024 41.118 1.624C41.838 2.224 42.198 3.112 42.198 4.288V8.068C42.198 8.98 42.078 9.832 41.838 10.624C41.622 11.392 41.19 12.016 40.542 12.496C39.918 12.976 39.006 13.216 37.806 13.216H34.422V22H30.822ZM34.422 11.272H36.618C37.338 11.272 37.878 10.996 38.238 10.444C38.598 9.868 38.778 8.944 38.778 7.672V5.764C38.778 4.636 38.622 3.832 38.31 3.352C37.998 2.872 37.566 2.632 37.014 2.632H34.422V11.272ZM45.6045 22V0.723999H55.1805V3.172H49.2045V9.616H54.1365V12.316H49.2045V19.624H55.1805V22H45.6045ZM58.4534 22V0.723999H65.7974C67.1414 0.723999 68.1734 1.024 68.8934 1.624C69.6374 2.224 70.0094 3.112 70.0094 4.288V7.672C70.0094 8.848 69.6854 9.808 69.0374 10.552C68.3894 11.272 67.4294 11.668 66.1574 11.74C66.9734 11.812 67.5494 12.076 67.8854 12.532C68.2454 12.988 68.5694 13.696 68.8574 14.656L70.9094 22H67.0934L65.4014 14.908C65.2334 14.308 65.0414 13.78 64.8254 13.324C64.6094 12.868 64.2614 12.64 63.7814 12.64H62.0174V22H58.4534ZM62.0174 10.228H64.3214C65.1614 10.228 65.7494 10.012 66.0854 9.58C66.4454 9.148 66.6254 8.488 66.6254 7.6V4.9C66.6254 4.108 66.4574 3.532 66.1214 3.172C65.8094 2.812 65.3174 2.632 64.6454 2.632H62.0174V10.228ZM78.6132 22.396C77.7972 22.396 77.0292 22.264 76.3092 22C75.5892 21.76 75.0012 21.268 74.5452 20.524C74.1132 19.756 73.8972 18.616 73.8972 17.104V5.224C73.8972 3.928 74.1372 2.944 74.6172 2.272C75.0972 1.576 75.7692 1.108 76.6332 0.868C77.4972 0.603999 78.4932 0.471998 79.6212 0.471998C80.7492 0.471998 81.7452 0.603999 82.6092 0.868C83.4732 1.132 84.1452 1.612 84.6252 2.308C85.1292 2.98 85.3812 3.952 85.3812 5.224V8.104H82.0332V5.08C82.0332 4.36 81.9252 3.82 81.7092 3.46C81.5172 3.1 81.2412 2.86 80.8812 2.74C80.5452 2.62 80.1372 2.56 79.6572 2.56C79.2252 2.56 78.8292 2.62 78.4692 2.74C78.1092 2.86 77.8212 3.1 77.6052 3.46C77.4132 3.82 77.3172 4.36 77.3172 5.08V17.86C77.3172 18.58 77.4132 19.12 77.6052 19.48C77.8212 19.84 78.1092 20.08 78.4692 20.2C78.8292 20.32 79.2252 20.38 79.6572 20.38C80.3532 20.38 80.9172 20.176 81.3492 19.768C81.8052 19.336 82.0332 18.7 82.0332 17.86V13.54H79.9092V11.56H85.3812V22H82.7892L82.6092 20.2C82.5612 20.296 82.5012 20.404 82.4292 20.524C82.3572 20.62 82.2972 20.704 82.2492 20.776C81.9612 21.208 81.5292 21.592 80.9532 21.928C80.4012 22.24 79.6212 22.396 78.6132 22.396ZM91.9112 22V12.856L87.9512 0.723999H91.3712L93.6032 7.996L93.7832 9.112L93.9992 7.996L96.3392 0.723999H99.5432L95.3672 13.036V22H91.9112ZM102.449 22V0.723999H106.697L110.261 15.844L113.861 0.723999H118.073V22H115.013V5.584L111.449 22H109.073L105.509 5.584V22H102.449Z" fill="currentColor"/>
</g></symbol></svg>